<mxfile host="app.diagrams.net" modified="2024-07-22T04:09:06.857Z" agent="Mozilla/5.0 (Macintosh; Intel Mac OS X 10_15_7) AppleWebKit/537.36 (KHTML, like Gecko) Chrome/126.0.0.0 Safari/537.36" etag="viVJN1CdxlHF95Xe4sZn" version="24.7.1" type="device">
  <diagram name="Page-1" id="LrEbL7pTlEItMeG_ww5v">
    <mxGraphModel dx="2270" dy="2049" grid="1" gridSize="10" guides="1" tooltips="1" connect="1" arrows="1" fold="1" page="1" pageScale="1" pageWidth="827" pageHeight="1169" math="0" shadow="0">
      <root>
        <mxCell id="0" />
        <mxCell id="1" parent="0" />
        <mxCell id="iMb-QRu7bP1vdPeFqpxr-1" value="" style="sketch=0;pointerEvents=1;shadow=0;dashed=0;html=1;strokeColor=none;fillColor=#434445;aspect=fixed;labelPosition=center;verticalLabelPosition=bottom;verticalAlign=top;align=center;outlineConnect=0;shape=mxgraph.vvd.web_browser;" vertex="1" parent="1">
          <mxGeometry x="30" y="240" width="126.76" height="90" as="geometry" />
        </mxCell>
        <mxCell id="iMb-QRu7bP1vdPeFqpxr-2" value="" style="html=1;verticalLabelPosition=bottom;align=center;labelBackgroundColor=#ffffff;verticalAlign=top;strokeWidth=2;strokeColor=#0080F0;shadow=0;dashed=0;shape=mxgraph.ios7.icons.smartphone;" vertex="1" parent="1">
          <mxGeometry x="68.38" y="390" width="50" height="80" as="geometry" />
        </mxCell>
        <mxCell id="iMb-QRu7bP1vdPeFqpxr-3" value="API Gateway" style="sketch=0;html=1;verticalAlign=top;labelPosition=center;verticalLabelPosition=bottom;align=center;spacingTop=-6;fontSize=11;fontStyle=1;fontColor=#999999;shape=image;aspect=fixed;imageAspect=0;image=data:image/svg+xml,PHN2ZyB4bWxucz0iaHR0cDovL3d3dy53My5vcmcvMjAwMC9zdmciIGhlaWdodD0iMzY3LjgxODMyODg1NzQyMTkiIHZpZXdCb3g9IjcuMTA1NDI3MzU3NjAxMDAyZS0xNSAwIDM2Ni40MTAxODY3Njc1NzgxIDM2Ny44MTgzMjg4NTc0MjE5IiBwcmVzZXJ2ZUFzcGVjdFJhdGlvPSJ4TWlkWU1pZCBtZWV0IiB3aWR0aD0iMzY2LjQxMDE5Njc2NzU3OTEiIHZlcnNpb249IjEuMSIgaWQ9InN2Zzk4NyIgem9vbUFuZFBhbj0ibWFnbmlmeSI+JiN4YTsgIDxwYXRoIGQ9Im0gNDguMjUxOTYsMTExLjUzOTA2IGMgLTcuNjE4NjQsMmUtNCAtMTMuNzk0NzIsNi4xNzYyOCAtMTMuNzk0OTMsMTMuNzk0OTIgMi4xZS00LDcuNjE4NjQgNi4xNzYyOSwxMy43OTQ3MiAxMy43OTQ5MywxMy43OTQ5MiBoIDE0NS4xNDY5MiB2IC0yNy41ODk4NCB6IG0gMjM4LjYwODU5LDU3LjQ1MTE3IGggNjUuNzU0NjkgYyA3LjYxODY0LC0yLjFlLTQgMTMuNzk0NzEsLTYuMTc2MjggMTMuNzk0OTIsLTEzLjc5NDkyIC0yLjFlLTQsLTcuNjE4NjQgLTYuMTc2MjgsLTEzLjc5NDcxIC0xMy43OTQ5MiwtMTMuNzk0OTIgSCAyODQuODUwNiBaIE0gMTMuNzk0OTIsMTcwLjk3NDYxIEMgNi4xNzYyODAxLDE3MC45NzQ4MiAyLjEwMDkxOWUtNCwxNzcuMTUwODkgOS4xODk5MjFlLTgsMTg0Ljc2OTUzIC04LjY5OTA4MWUtNCwxOTIuMzg4OTMgNi4xNzU1MjAxLDE5OC41NjYxOSAxMy43OTQ5MiwxOTguNTY2NCBIIDE5My4zOTg4OCBWIDE3MC45NzQ2MSBaIE0gMjg0LjMwNzgsMjI3LjU2NjQgaCA2OC4zMDc0NCBjIDcuNjE4NjQsLTIuMWUtNCAxMy43OTQ3MSwtNi4xNzYyOCAxMy43OTQ5MiwtMTMuNzk0OTIgLTIuMWUtNCwtNy42MTg2NCAtNi4xNzYyOCwtMTMuNzk0NzEgLTEzLjc5NDkyLC0xMy43OTQ5MiBoIC02NS45MjE3OCB6IG0gLTIzNi4wNTU4NCwxLjY5NzI3IGMgLTcuNjE4NjQsMmUtNCAtMTMuNzk0NzIsNi4xNzYyOCAtMTMuNzk0OTMsMTMuNzk0OTIgMi4xZS00LDcuNjE4NjQgNi4xNzYyOSwxMy43OTQ3MiAxMy43OTQ5MywxMy43OTQ5MiBIIDE5My4zOTg4OCBWIDIyOS4yNjM2NyBaIE0gMTg5LjUyMTQ5LDAgYyAtMjQuNTc0MTEsMCAtNDkuMTY3MzcsMjAuMDU1MDcgLTU5LjQzNzUsNzUuMzczMDQgaCAzMC41ODAwNyBjIDQuNjE2MzMsLTI0LjE2MjA2IDE1LjM0ODk2LC00Ny41MjE0OCAyNy44NTM1MiwtNDcuNTIxNDggMTIuMTU4OCwwIDM5LjQ1ODk4LDU3LjQ1MDQ0IDM5LjQ1ODk4LDE2MC40MTQwNiAwLDY5LjkxNTEzIC0xOS41NzgwOSwxNTIuMTE1MjQgLTQxLjE3MTg3LDE1Mi4xMTUyMyAtMTUuMjY4ODEsMmUtNSAtMjEuMjE2NjgsLTI4LjMzMzU2IC0yNS40NDMzNiwtNDYuNzE4NzQgbCAtMzAuNDE0MDYsLTAuMDY4NCBjIDQuMjIwNzQsMjAuNTQwODcgMTYuOTA3NjgsNzQuMjI0NiA1Ny43MTI4OSw3NC4yMjQ2IDUzLjQzNjcyLDAgNjguOTEyMTEsLTExMS45OTMwNSA2OC45MTIxMSwtMTgwLjQ2Mjg5IEMgMjU3LjU3MjI3LDkzLjgwMDc2IDIzNi41ODM0LDAgMTg5LjUyMTQ5LDAgWiIgc3R5bGU9ImNvbG9yOiMwMDAwMDA7b3BhY2l0eToxO2ZpbGw6IzQyODVmNDtmaWxsLW9wYWNpdHk6MTtzdHJva2UtbGluZWNhcDpyb3VuZDstaW5rc2NhcGUtc3Ryb2tlOm5vbmUiLz4mI3hhOzwvc3ZnPg==;" vertex="1" parent="1">
          <mxGeometry x="220" y="315.07" width="90" height="90" as="geometry" />
        </mxCell>
        <mxCell id="iMb-QRu7bP1vdPeFqpxr-4" value="x" style="image;aspect=fixed;perimeter=ellipsePerimeter;html=1;align=center;shadow=0;dashed=0;spacingTop=3;image=img/lib/active_directory/generic_server.svg;" vertex="1" parent="1">
          <mxGeometry x="410" y="20" width="54.4" height="97.14" as="geometry" />
        </mxCell>
        <mxCell id="iMb-QRu7bP1vdPeFqpxr-5" value="x" style="image;aspect=fixed;perimeter=ellipsePerimeter;html=1;align=center;shadow=0;dashed=0;spacingTop=3;image=img/lib/active_directory/generic_server.svg;" vertex="1" parent="1">
          <mxGeometry x="410" y="190" width="54.4" height="97.14" as="geometry" />
        </mxCell>
        <mxCell id="iMb-QRu7bP1vdPeFqpxr-6" value="x" style="image;aspect=fixed;perimeter=ellipsePerimeter;html=1;align=center;shadow=0;dashed=0;spacingTop=3;image=img/lib/active_directory/generic_server.svg;" vertex="1" parent="1">
          <mxGeometry x="410" y="390" width="54.4" height="97.14" as="geometry" />
        </mxCell>
        <mxCell id="iMb-QRu7bP1vdPeFqpxr-7" value="x" style="image;aspect=fixed;perimeter=ellipsePerimeter;html=1;align=center;shadow=0;dashed=0;spacingTop=3;image=img/lib/active_directory/generic_server.svg;" vertex="1" parent="1">
          <mxGeometry x="420" y="585" width="54.4" height="97.14" as="geometry" />
        </mxCell>
        <mxCell id="iMb-QRu7bP1vdPeFqpxr-8" value="" style="image;aspect=fixed;perimeter=ellipsePerimeter;html=1;align=center;shadow=0;dashed=0;spacingTop=3;image=img/lib/active_directory/database.svg;" vertex="1" parent="1">
          <mxGeometry x="610" y="50.14" width="90.54" height="67" as="geometry" />
        </mxCell>
        <mxCell id="iMb-QRu7bP1vdPeFqpxr-9" value="" style="image;aspect=fixed;perimeter=ellipsePerimeter;html=1;align=center;shadow=0;dashed=0;spacingTop=3;image=img/lib/active_directory/database.svg;" vertex="1" parent="1">
          <mxGeometry x="620" y="205.07" width="90.54" height="67" as="geometry" />
        </mxCell>
        <mxCell id="iMb-QRu7bP1vdPeFqpxr-11" value="" style="image;aspect=fixed;perimeter=ellipsePerimeter;html=1;align=center;shadow=0;dashed=0;spacingTop=3;image=img/lib/active_directory/database.svg;" vertex="1" parent="1">
          <mxGeometry x="610" y="405.07" width="90.54" height="67" as="geometry" />
        </mxCell>
        <mxCell id="iMb-QRu7bP1vdPeFqpxr-12" value="" style="image;aspect=fixed;perimeter=ellipsePerimeter;html=1;align=center;shadow=0;dashed=0;spacingTop=3;image=img/lib/active_directory/database.svg;" vertex="1" parent="1">
          <mxGeometry x="620" y="600.07" width="90.54" height="67" as="geometry" />
        </mxCell>
        <mxCell id="iMb-QRu7bP1vdPeFqpxr-13" value="&lt;div style=&quot;box-sizing: inherit; margin: 0px; padding: 0px; border: 0px; font-size: 16px; vertical-align: baseline; color: rgb(9, 30, 66); font-family: &amp;quot;Charlie Text&amp;quot;, -apple-system, &amp;quot;system-ui&amp;quot;, &amp;quot;Segoe UI&amp;quot;, Roboto, &amp;quot;Noto Sans&amp;quot;, Ubuntu, &amp;quot;Droid Sans&amp;quot;, &amp;quot;Helvetica Neue&amp;quot;, sans-serif; text-align: start; background-color: rgb(255, 255, 255);&quot; class=&quot;component component--heading&quot;&gt;&lt;h2 style=&quot;box-sizing: inherit; font-family: &amp;quot;Charlie Display&amp;quot;, -apple-system, BlinkMacSystemFont, &amp;quot;Segoe UI&amp;quot;, Roboto, &amp;quot;Noto Sans&amp;quot;, Ubuntu, &amp;quot;Droid Sans&amp;quot;, &amp;quot;Helvetica Neue&amp;quot;, sans-serif; font-weight: 500; margin: 0px 0px 24px; padding: 0px; border: 0px; font-size: 2.25rem; vertical-align: baseline; color: rgb(37, 56, 88); letter-spacing: 0px; line-height: 1.33333;&quot; class=&quot;fnt-wt font-wt- fnt-mg font-mgn- fnt-ln font-lnh- heading&quot;&gt;&lt;div style=&quot;box-sizing: inherit; margin: 0px; padding: 0px; border: 0px; font-size: 16px; vertical-align: baseline; color: rgb(9, 30, 66); font-family: &amp;quot;Charlie Text&amp;quot;, -apple-system, &amp;quot;system-ui&amp;quot;, &amp;quot;Segoe UI&amp;quot;, Roboto, &amp;quot;Noto Sans&amp;quot;, Ubuntu, &amp;quot;Droid Sans&amp;quot;, &amp;quot;Helvetica Neue&amp;quot;, sans-serif;&quot; class=&quot;component component--heading&quot;&gt;&lt;/div&gt;&lt;div style=&quot;box-sizing: inherit; margin: 0px; padding: 0px; border: 0px; font-size: 16px; vertical-align: baseline; color: rgb(9, 30, 66); font-family: &amp;quot;Charlie Text&amp;quot;, -apple-system, &amp;quot;system-ui&amp;quot;, &amp;quot;Segoe UI&amp;quot;, Roboto, &amp;quot;Noto Sans&amp;quot;, Ubuntu, &amp;quot;Droid Sans&amp;quot;, &amp;quot;Helvetica Neue&amp;quot;, sans-serif;&quot; class=&quot;component component--horizontal-rule align-left&quot;&gt;&lt;/div&gt;&lt;/h2&gt;&lt;h2 style=&quot;box-sizing: inherit; font-family: &amp;quot;Charlie Display&amp;quot;, -apple-system, BlinkMacSystemFont, &amp;quot;Segoe UI&amp;quot;, Roboto, &amp;quot;Noto Sans&amp;quot;, Ubuntu, &amp;quot;Droid Sans&amp;quot;, &amp;quot;Helvetica Neue&amp;quot;, sans-serif; font-weight: 500; margin: 0px 0px 24px; padding: 0px; border: 0px; font-size: 2.25rem; vertical-align: baseline; color: rgb(37, 56, 88); letter-spacing: 0px; line-height: 1.33333;&quot; class=&quot;fnt-wt font-wt- fnt-mg font-mgn- fnt-ln font-lnh- heading&quot;&gt;Example of a microservice architecture&lt;/h2&gt;&lt;/div&gt;&lt;div style=&quot;box-sizing: inherit; margin: 0px; padding: 0px; border: 0px; font-size: 16px; vertical-align: baseline; color: rgb(9, 30, 66); font-family: &amp;quot;Charlie Text&amp;quot;, -apple-system, &amp;quot;system-ui&amp;quot;, &amp;quot;Segoe UI&amp;quot;, Roboto, &amp;quot;Noto Sans&amp;quot;, Ubuntu, &amp;quot;Droid Sans&amp;quot;, &amp;quot;Helvetica Neue&amp;quot;, sans-serif; text-align: start; background-color: rgb(255, 255, 255);&quot; class=&quot;component component--horizontal-rule align-left&quot;&gt;&lt;/div&gt;" style="text;html=1;align=center;verticalAlign=middle;whiteSpace=wrap;rounded=0;" vertex="1" parent="1">
          <mxGeometry x="-10" y="-60" width="780" height="30" as="geometry" />
        </mxCell>
        <mxCell id="iMb-QRu7bP1vdPeFqpxr-14" value="" style="endArrow=none;html=1;rounded=0;" edge="1" parent="1">
          <mxGeometry width="50" height="50" relative="1" as="geometry">
            <mxPoint x="360" y="650" as="sourcePoint" />
            <mxPoint x="360" y="60" as="targetPoint" />
          </mxGeometry>
        </mxCell>
        <mxCell id="iMb-QRu7bP1vdPeFqpxr-15" value="" style="endArrow=classic;html=1;rounded=0;" edge="1" parent="1">
          <mxGeometry width="50" height="50" relative="1" as="geometry">
            <mxPoint x="360" y="650" as="sourcePoint" />
            <mxPoint x="420" y="650" as="targetPoint" />
          </mxGeometry>
        </mxCell>
        <mxCell id="iMb-QRu7bP1vdPeFqpxr-16" value="" style="endArrow=classic;html=1;rounded=0;entryX=0;entryY=0.5;entryDx=0;entryDy=0;" edge="1" parent="1" target="iMb-QRu7bP1vdPeFqpxr-6">
          <mxGeometry width="50" height="50" relative="1" as="geometry">
            <mxPoint x="360" y="440" as="sourcePoint" />
            <mxPoint x="410" y="390" as="targetPoint" />
          </mxGeometry>
        </mxCell>
        <mxCell id="iMb-QRu7bP1vdPeFqpxr-17" value="" style="endArrow=classic;html=1;rounded=0;entryX=0;entryY=0.5;entryDx=0;entryDy=0;" edge="1" parent="1">
          <mxGeometry width="50" height="50" relative="1" as="geometry">
            <mxPoint x="360" y="241" as="sourcePoint" />
            <mxPoint x="410" y="240" as="targetPoint" />
          </mxGeometry>
        </mxCell>
        <mxCell id="iMb-QRu7bP1vdPeFqpxr-18" value="" style="endArrow=classic;html=1;rounded=0;entryX=0;entryY=0.5;entryDx=0;entryDy=0;" edge="1" parent="1">
          <mxGeometry width="50" height="50" relative="1" as="geometry">
            <mxPoint x="360" y="61" as="sourcePoint" />
            <mxPoint x="410" y="60" as="targetPoint" />
          </mxGeometry>
        </mxCell>
        <mxCell id="iMb-QRu7bP1vdPeFqpxr-19" value="" style="endArrow=none;dashed=1;html=1;dashPattern=1 3;strokeWidth=2;rounded=0;entryX=0;entryY=0.5;entryDx=0;entryDy=0;" edge="1" parent="1" target="iMb-QRu7bP1vdPeFqpxr-8">
          <mxGeometry width="50" height="50" relative="1" as="geometry">
            <mxPoint x="460" y="84" as="sourcePoint" />
            <mxPoint x="510" y="30" as="targetPoint" />
          </mxGeometry>
        </mxCell>
        <mxCell id="iMb-QRu7bP1vdPeFqpxr-20" value="" style="endArrow=none;dashed=1;html=1;dashPattern=1 3;strokeWidth=2;rounded=0;entryX=0;entryY=0.5;entryDx=0;entryDy=0;" edge="1" parent="1">
          <mxGeometry width="50" height="50" relative="1" as="geometry">
            <mxPoint x="450" y="240" as="sourcePoint" />
            <mxPoint x="630" y="240" as="targetPoint" />
          </mxGeometry>
        </mxCell>
        <mxCell id="iMb-QRu7bP1vdPeFqpxr-21" value="" style="endArrow=none;dashed=1;html=1;dashPattern=1 3;strokeWidth=2;rounded=0;entryX=0;entryY=0.5;entryDx=0;entryDy=0;" edge="1" parent="1">
          <mxGeometry width="50" height="50" relative="1" as="geometry">
            <mxPoint x="450" y="440" as="sourcePoint" />
            <mxPoint x="630" y="440" as="targetPoint" />
          </mxGeometry>
        </mxCell>
        <mxCell id="iMb-QRu7bP1vdPeFqpxr-22" value="" style="endArrow=none;dashed=1;html=1;dashPattern=1 3;strokeWidth=2;rounded=0;entryX=0;entryY=0.5;entryDx=0;entryDy=0;" edge="1" parent="1">
          <mxGeometry width="50" height="50" relative="1" as="geometry">
            <mxPoint x="460" y="642.07" as="sourcePoint" />
            <mxPoint x="640" y="642.07" as="targetPoint" />
          </mxGeometry>
        </mxCell>
        <mxCell id="iMb-QRu7bP1vdPeFqpxr-23" value="&lt;font style=&quot;font-size: 18px;&quot;&gt;&lt;b&gt;Account Service&lt;/b&gt;&lt;/font&gt;" style="text;html=1;align=center;verticalAlign=middle;whiteSpace=wrap;rounded=0;" vertex="1" parent="1">
          <mxGeometry x="375.7" y="140" width="164.3" height="30" as="geometry" />
        </mxCell>
        <mxCell id="iMb-QRu7bP1vdPeFqpxr-24" value="&lt;font style=&quot;font-size: 18px;&quot;&gt;&lt;b&gt;Orders Service&lt;/b&gt;&lt;/font&gt;" style="text;html=1;align=center;verticalAlign=middle;whiteSpace=wrap;rounded=0;" vertex="1" parent="1">
          <mxGeometry x="375.7" y="310" width="164.3" height="30" as="geometry" />
        </mxCell>
        <mxCell id="iMb-QRu7bP1vdPeFqpxr-27" value="&lt;font style=&quot;font-size: 18px;&quot;&gt;&lt;b&gt;Shopping Cart Service&lt;/b&gt;&lt;/font&gt;" style="text;html=1;align=center;verticalAlign=middle;whiteSpace=wrap;rounded=0;" vertex="1" parent="1">
          <mxGeometry x="375.7" y="510" width="204.3" height="30" as="geometry" />
        </mxCell>
        <mxCell id="iMb-QRu7bP1vdPeFqpxr-28" value="&lt;font style=&quot;font-size: 18px;&quot;&gt;&lt;b&gt;Payment Service&lt;/b&gt;&lt;/font&gt;" style="text;html=1;align=center;verticalAlign=middle;whiteSpace=wrap;rounded=0;" vertex="1" parent="1">
          <mxGeometry x="365.05" y="710" width="164.3" height="30" as="geometry" />
        </mxCell>
        <mxCell id="iMb-QRu7bP1vdPeFqpxr-29" value="&lt;font style=&quot;font-size: 18px;&quot;&gt;&lt;b&gt;Account DB&lt;/b&gt;&lt;/font&gt;" style="text;html=1;align=center;verticalAlign=middle;whiteSpace=wrap;rounded=0;" vertex="1" parent="1">
          <mxGeometry x="690" y="68.64" width="164.3" height="30" as="geometry" />
        </mxCell>
        <mxCell id="iMb-QRu7bP1vdPeFqpxr-30" value="&lt;font style=&quot;font-size: 18px;&quot;&gt;&lt;b&gt;Orders DB&lt;/b&gt;&lt;/font&gt;" style="text;html=1;align=center;verticalAlign=middle;whiteSpace=wrap;rounded=0;" vertex="1" parent="1">
          <mxGeometry x="680" y="223.57" width="164.3" height="30" as="geometry" />
        </mxCell>
        <mxCell id="iMb-QRu7bP1vdPeFqpxr-31" value="&lt;font style=&quot;font-size: 18px;&quot;&gt;&lt;b&gt;Cart DB&lt;/b&gt;&lt;/font&gt;" style="text;html=1;align=center;verticalAlign=middle;whiteSpace=wrap;rounded=0;" vertex="1" parent="1">
          <mxGeometry x="670" y="423.57" width="164.3" height="30" as="geometry" />
        </mxCell>
        <mxCell id="iMb-QRu7bP1vdPeFqpxr-32" value="&lt;font style=&quot;font-size: 18px;&quot;&gt;&lt;b&gt;Payment DB&lt;/b&gt;&lt;/font&gt;" style="text;html=1;align=center;verticalAlign=middle;whiteSpace=wrap;rounded=0;" vertex="1" parent="1">
          <mxGeometry x="690" y="618.5699999999999" width="164.3" height="30" as="geometry" />
        </mxCell>
        <mxCell id="iMb-QRu7bP1vdPeFqpxr-35" value="&lt;font style=&quot;font-size: 18px;&quot;&gt;Web Broswer / Mobile Device&lt;/font&gt;" style="text;html=1;align=center;verticalAlign=middle;whiteSpace=wrap;rounded=0;" vertex="1" parent="1">
          <mxGeometry x="-70" y="345.07" width="280" height="30" as="geometry" />
        </mxCell>
        <mxCell id="iMb-QRu7bP1vdPeFqpxr-36" value="" style="rounded=0;whiteSpace=wrap;html=1;fillOpacity=0;" vertex="1" parent="1">
          <mxGeometry x="-100" y="-100" width="1020" height="880" as="geometry" />
        </mxCell>
      </root>
    </mxGraphModel>
  </diagram>
</mxfile>
